<svg width="100" height="104" viewBox="0 0 100 104" fill="none" xmlns="http://www.w3.org/2000/svg">
<ellipse cx="50" cy="51.5152" rx="50" ry="51.5152" fill="#D9D9D9"/>
<ellipse cx="52.2054" cy="51.5159" rx="17.4632" ry="17.9924" fill="#39B74A"/>
<path fill-rule="evenodd" clip-rule="evenodd" d="M24.0654 31.5413C6.00457 44.9981 5.47305 45.4978 4.95083 49.5117C4.17679 55.4557 5.33049 56.7546 23.2937 70.1539L39.9522 82.5809L41.0067 77.6873C42.3959 71.2419 42.0852 70.8364 27.5846 60.1329C21.2885 55.4861 16.1608 51.4188 16.1887 51.0947C16.2174 50.7714 21.796 46.4159 28.5857 41.4154C41.8853 31.6219 42.2596 31.1334 41.0966 25.076C40.7177 23.1002 40.3923 21.2138 40.3737 20.8849C40.3009 19.5949 38.6644 20.6638 24.0654 31.5413Z" fill="black"/>
<rect width="6.99967" height="58.598" rx="2" transform="matrix(0.963942 0.266114 -0.251696 0.967806 81.293 24.0547)" fill="black"/>
</svg>
