<svg width="853" height="300" viewBox="0 0 853 300" fill="none" xmlns="http://www.w3.org/2000/svg">
<path fill-rule="evenodd" clip-rule="evenodd" d="M484.106 3.51299C476.872 30.533 475.62 46.276 480.026 54.805C482.937 60.441 487.412 64.015 527.015 92.341C586.498 134.885 603.422 147.064 604.84 148.349C605.905 149.314 603.849 151.209 594.34 158.026C587.836 162.689 561.59 181.492 536.015 199.811C487.265 234.729 483.004 238.084 479.984 243.933C475.996 251.656 476.829 266.775 482.45 288.661C485.097 298.965 485.396 299.557 487.241 298.122C488.685 296.998 573.674 235.702 608.371 210.759C645.073 184.375 647.299 182.626 650.756 177.467C659.587 164.285 660.425 139.437 652.56 123.918C649.445 117.769 647.012 115.73 617.015 94.128C603.54 84.424 583.065 69.664 571.515 61.328C500.868 10.337 486.871 0.295994 486.046 0.0129938C485.54 -0.160006 484.667 1.41499 484.106 3.51299ZM140.454 23.133C123.438 35.413 88.1397 60.864 62.0147 79.691C9.91974 117.233 8.15472 118.645 4.62772 125.604C-0.792281 136.301 -1.60624 159.246 3.00876 171.247C6.46076 180.225 10.6777 183.981 45.4217 209.032C79.4597 233.573 104.794 251.864 143.015 279.496C168.901 298.209 171.913 300.28 172.428 299.713C172.621 299.501 173.703 295.503 174.832 290.828C180.999 265.293 181.627 253.149 177.218 244.692C173.828 238.189 176.098 239.939 106.015 189.792C76.5897 168.738 52.2167 151.245 51.8517 150.92C51.2047 150.343 62.4157 142.137 125.015 97.37C180.945 57.372 180.015 58.287 180.015 43.28C180.015 32.989 174.564 3.97699 172.183 1.59599C171.749 1.16199 157.47 10.853 140.454 23.133ZM442.323 22.84C437.744 24.68 437.39 26.634 433.537 71.328C431.499 94.978 428.774 126.478 427.483 141.328C426.192 156.178 423.752 184.303 422.062 203.828C420.371 223.353 418.327 246.281 417.518 254.778C415.48 276.192 415.776 276.581 434.496 277.04C449.562 277.409 449.412 277.568 450.926 259.662C453.597 228.07 458.135 175.843 459.513 160.828C460.346 151.753 461.911 133.978 462.99 121.328C464.069 108.678 465.431 92.928 466.017 86.328C472.014 18.759 472.76 24.607 457.984 23.364C453.876 23.019 449.165 22.561 447.515 22.347C445.865 22.134 443.529 22.355 442.323 22.84ZM768.015 63.44C713.423 70.169 682.665 103.42 682.551 155.828C682.477 189.759 692.437 210.541 715.515 224.613C757.931 250.476 852.015 237.173 852.015 205.312C852.015 192.646 841.25 190.468 817.203 198.268C793.486 205.961 792.078 206.227 775.015 206.227C746.563 206.227 733.638 199.625 724.369 180.356C718.062 167.246 720.107 162.83 732.488 162.826C745.829 162.821 783.065 159.449 800.015 156.711C823.908 152.851 838.881 144.63 845.725 131.612C849.894 123.683 849.93 102.347 845.789 93.509C839.642 80.39 825.135 70.301 806.038 65.864C796.803 63.718 776.339 62.414 768.015 63.44ZM795.721 90.253C819.157 97.575 820.685 127.074 798.153 137.186C787.366 142.027 778.538 143.328 756.515 143.325C726.19 143.321 722.204 141.706 723.279 129.855C724.459 116.838 735.462 102.404 749.796 95.068C756.57 91.601 759.432 90.584 768.515 88.416C772.556 87.451 790.668 88.674 795.721 90.253Z" fill="black"/>
<circle cx="287" cy="150" r="95" fill="#39B74A"/>
</svg>
