<svg width="1260" height="442" viewBox="0 0 1260 442" fill="none" xmlns="http://www.w3.org/2000/svg">
<ellipse cx="914" cy="119" rx="67" ry="95" fill="#39B74A"/>
<path d="M26.91 214V10.68H99.567C128.271 10.68 149.799 20.1483 164.151 39.085C178.503 58.0217 185.679 82.44 185.679 112.34C185.679 142.24 178.503 166.658 164.151 185.595C149.799 204.532 128.271 214 99.567 214H26.91ZM99.567 32.208H50.83V192.472H99.567C120.298 192.472 135.846 185.097 146.211 170.346C156.576 155.396 161.759 136.061 161.759 112.34C161.759 88.6193 156.576 69.3837 146.211 54.633C135.846 39.683 120.298 32.208 99.567 32.208ZM270.107 218.186C252.167 218.186 237.316 211.907 225.556 199.349C213.994 186.791 208.214 168.353 208.214 144.034C208.214 119.715 215.091 99.6823 228.845 83.935C242.599 68.1877 260.439 60.314 282.366 60.314C296.319 60.314 307.581 64.5997 316.153 73.171C324.724 81.543 329.01 92.1077 329.01 104.865C329.01 117.423 322.432 128.984 309.276 139.549C296.319 150.114 277.382 155.396 252.466 155.396C245.888 155.396 238.911 155.097 231.536 154.499C232.931 168.652 237.217 179.416 244.393 186.791C251.768 194.166 260.638 197.854 271.004 197.854C288.346 197.854 302.797 192.472 314.359 181.708L325.123 196.359C309.973 210.91 291.635 218.186 270.107 218.186ZM281.469 80.646C267.715 80.646 256.253 85.5297 247.084 95.297C238.114 105.064 232.831 118.021 231.237 134.167C237.815 135.164 245.09 135.662 253.064 135.662C270.206 135.662 283.362 132.473 292.532 126.094C301.701 119.715 306.286 112.34 306.286 103.968C306.286 97.7887 303.993 92.4067 299.409 87.822C295.023 83.038 289.043 80.646 281.469 80.646ZM351.547 83.935V64.5H370.982V49.251C370.982 32.3077 374.47 19.949 381.447 12.175C388.623 4.40099 397.892 0.513986 409.254 0.513986C420.815 0.513986 432.775 4.50065 445.134 12.474L436.164 28.62C425.799 24.0353 417.726 21.743 411.945 21.743C399.786 21.743 393.706 30.5137 393.706 48.055V64.5H472.343V214H449.619V83.935H393.706V261.84H370.982V83.935H351.547ZM596.517 60.314C629.207 60.314 645.553 81.244 645.553 123.104V214H622.829V123.104C622.829 94.7987 612.762 80.646 592.63 80.646C581.068 80.646 570.504 86.626 560.936 98.586C551.567 110.546 546.584 126.991 545.986 147.921V214H523.262V94.4L520.272 64.5L540.006 63.005L545.687 93.802C551.866 83.038 559.54 74.7657 568.71 68.985C577.879 63.2043 587.148 60.314 596.517 60.314ZM743.426 218.186C725.486 218.186 710.636 211.907 698.875 199.349C687.314 186.791 681.533 168.353 681.533 144.034C681.533 119.715 688.41 99.6823 702.164 83.935C715.918 68.1877 733.758 60.314 755.685 60.314C769.638 60.314 780.901 64.5997 789.472 73.171C798.043 81.543 802.329 92.1077 802.329 104.865C802.329 117.423 795.751 128.984 782.595 139.549C769.638 150.114 750.702 155.396 725.785 155.396C719.207 155.396 712.23 155.097 704.855 154.499C706.25 168.652 710.536 179.416 717.712 186.791C725.087 194.166 733.958 197.854 744.323 197.854C761.665 197.854 776.117 192.472 787.678 181.708L798.442 196.359C783.293 210.91 764.954 218.186 743.426 218.186ZM754.788 80.646C741.034 80.646 729.572 85.5297 720.403 95.297C711.433 105.064 706.151 118.021 704.556 134.167C711.134 135.164 718.41 135.662 726.383 135.662C743.526 135.662 756.682 132.473 765.851 126.094C775.02 119.715 779.605 112.34 779.605 103.968C779.605 97.7887 777.313 92.4067 772.728 87.822C768.343 83.038 762.363 80.646 754.788 80.646ZM849.085 189.183C834.933 169.449 827.856 143.835 827.856 112.34C827.856 80.8453 834.933 55.231 849.085 35.497C863.437 15.763 884.866 5.89599 913.37 5.89599C932.706 5.89599 948.951 10.7797 962.107 20.547C975.463 30.3143 985.031 42.972 990.811 58.52C996.592 74.068 999.482 92.008 999.482 112.34C999.482 132.672 996.592 150.612 990.811 166.16C985.031 181.708 975.463 194.366 962.107 204.133C948.951 213.9 932.706 218.784 913.37 218.784C884.866 218.784 863.437 208.917 849.085 189.183ZM867.025 51.344C856.859 66.892 851.776 87.224 851.776 112.34C851.776 137.456 856.859 157.888 867.025 173.635C877.391 189.183 892.839 196.957 913.37 196.957C934.101 196.957 949.649 189.083 960.014 173.336C970.38 157.589 975.562 137.257 975.562 112.34C975.562 87.4233 970.38 67.0913 960.014 51.344C949.649 35.5967 934.101 27.723 913.37 27.723C892.839 27.723 877.391 35.5967 867.025 51.344ZM1026.34 83.935V64.5H1045.78V49.251C1045.78 32.3077 1049.26 19.949 1056.24 12.175C1063.42 4.40099 1072.69 0.513986 1084.05 0.513986C1095.61 0.513986 1107.57 4.50065 1119.93 12.474L1110.96 28.62C1100.59 24.0353 1092.52 21.743 1086.74 21.743C1074.58 21.743 1068.5 30.5137 1068.5 48.055V64.5H1102.88V83.935H1068.5V261.84H1045.78V83.935H1026.34ZM66.976 434V363.735L0 230.68H26.312L78.936 340.114L131.56 230.68H157.872L90.896 363.735V434H66.976ZM168.339 416.359C157.376 401.608 151.894 382.572 151.894 359.25C151.894 335.928 157.376 316.991 168.339 302.44C179.303 287.689 195.648 280.314 217.375 280.314C239.302 280.314 255.847 287.689 267.009 302.44C278.172 316.991 283.753 335.928 283.753 359.25C283.753 382.572 278.172 401.608 267.009 416.359C255.847 430.91 239.302 438.186 217.375 438.186C195.648 438.186 179.303 430.91 168.339 416.359ZM185.382 317.091C178.206 327.855 174.618 341.908 174.618 359.25C174.618 376.592 178.206 390.745 185.382 401.708C192.558 412.472 203.322 417.854 217.674 417.854C232.026 417.854 242.79 412.472 249.966 401.708C257.342 390.745 261.029 376.592 261.029 359.25C261.029 341.908 257.342 327.855 249.966 317.091C242.79 306.128 232.026 300.646 217.674 300.646C203.322 300.646 192.558 306.128 185.382 317.091ZM321.133 284.5H343.857V375.396C343.857 403.701 353.923 417.854 374.056 417.854C385.617 417.854 396.082 411.974 405.451 400.213C415.019 388.253 420.102 371.808 420.7 350.878V284.5H443.424V404.1L446.414 434L426.68 435.495L420.7 404.698C414.72 415.462 407.145 423.734 397.976 429.515C388.807 435.296 379.538 438.186 370.169 438.186C337.478 438.186 321.133 417.256 321.133 375.396V284.5ZM517.078 434H494.354V314.4L491.364 284.5L511.098 283.005L517.078 318.885C523.058 306.526 530.633 297.158 539.802 290.779C548.972 284.4 558.938 281.211 569.702 281.211L571.197 303.935C536.115 306.726 518.075 333.536 517.078 384.366V434Z" fill="#C4C4CC"/>
<path d="M600.967 434V230.68H708.607V252.208H624.887V321.576H692.76V343.104H624.887V434H600.967ZM786.933 438.186C768.993 438.186 754.143 431.907 742.382 419.349C730.821 406.791 725.04 388.353 725.04 364.034C725.04 339.715 731.917 319.682 745.671 303.935C759.425 288.188 777.265 280.314 799.192 280.314C813.145 280.314 824.408 284.6 832.979 293.171C841.55 301.543 845.836 312.108 845.836 324.865C845.836 337.423 839.258 348.984 826.102 359.549C813.145 370.114 794.209 375.396 769.292 375.396C762.714 375.396 755.737 375.097 748.362 374.499C749.757 388.652 754.043 399.416 761.219 406.791C768.594 414.166 777.465 417.854 787.83 417.854C805.172 417.854 819.624 412.472 831.185 401.708L841.949 416.359C826.8 430.91 808.461 438.186 786.933 438.186ZM798.295 300.646C784.541 300.646 773.079 305.53 763.91 315.297C754.94 325.064 749.658 338.021 748.063 354.167C754.641 355.164 761.917 355.662 769.89 355.662C787.033 355.662 800.189 352.473 809.358 346.094C818.527 339.715 823.112 332.34 823.112 323.968C823.112 317.789 820.82 312.407 816.235 307.822C811.85 303.038 805.87 300.646 798.295 300.646ZM928.472 438.186C911.329 438.186 897.276 431.708 886.313 418.751C875.35 405.794 869.868 387.157 869.868 362.838C869.868 338.32 876.745 318.486 890.499 303.337C904.452 287.988 921.695 280.314 942.226 280.314C962.957 280.314 981.594 286.095 998.139 297.656V404.1L1001.13 434L981.395 435.495L976.312 408.585C965.149 428.319 949.203 438.186 928.472 438.186ZM892.592 362.24C892.592 380.18 896.379 393.934 903.954 403.502C911.529 413.07 921.196 417.854 932.957 417.854C944.917 417.854 954.983 411.974 963.156 400.213C971.329 388.253 975.415 371.409 975.415 349.682V308.121C965.448 303.138 954.784 300.646 943.422 300.646C928.671 300.646 916.512 306.427 906.944 317.988C897.376 329.35 892.592 344.101 892.592 362.24ZM1073.32 434H1050.6V314.4L1047.61 284.5L1067.34 283.005L1073.32 318.885C1079.3 306.526 1086.88 297.158 1096.05 290.779C1105.22 284.4 1115.18 281.211 1125.95 281.211L1127.44 303.935C1092.36 306.726 1074.32 333.536 1073.32 384.366V434ZM1194.89 417.555C1203.66 417.555 1211.03 415.462 1217.01 411.276C1222.99 407.09 1225.98 401.907 1225.98 395.728C1225.98 389.349 1224.29 384.366 1220.9 380.778C1217.51 376.991 1213.82 374.3 1209.84 372.705C1206.05 371.11 1200.57 369.316 1193.39 367.323C1186.21 365.13 1180.73 363.336 1176.95 361.941C1173.16 360.346 1168.67 357.954 1163.49 354.765C1153.72 348.785 1148.84 338.619 1148.84 324.267C1148.84 309.716 1153.72 298.752 1163.49 291.377C1173.26 284.002 1184.72 280.314 1197.88 280.314C1206.05 280.314 1214.22 281.41 1222.39 283.603C1230.77 285.796 1237.04 288.088 1241.23 290.48L1232.86 308.719C1223.29 303.536 1211.63 300.945 1197.88 300.945C1190.9 300.945 1184.72 302.839 1179.34 306.626C1174.16 310.214 1171.56 314.898 1171.56 320.679C1171.56 326.26 1173.16 330.646 1176.35 333.835C1179.54 337.024 1182.83 339.317 1186.21 340.712C1189.6 342.107 1194.79 343.802 1201.76 345.795C1208.74 347.788 1214.32 349.682 1218.51 351.476C1222.89 353.071 1227.78 355.662 1233.16 359.25C1243.52 366.227 1248.71 377.29 1248.71 392.439C1248.71 407.389 1243.52 418.751 1233.16 426.525C1222.99 434.299 1210.23 438.186 1194.89 438.186C1174.16 438.186 1156.61 431.508 1142.26 418.153L1154.52 401.708C1165.48 412.273 1178.94 417.555 1194.89 417.555Z" fill="#39B74A"/>
<path d="M26.91 214H25.91V215H26.91V214ZM26.91 10.68V9.68H25.91V10.68H26.91ZM164.151 39.085L164.948 38.481L164.948 38.481L164.151 39.085ZM164.151 185.595L163.354 184.991L163.354 184.991L164.151 185.595ZM50.83 32.208V31.208H49.83V32.208H50.83ZM50.83 192.472H49.83V193.472H50.83V192.472ZM146.211 170.346L147.029 170.921L147.033 170.916L146.211 170.346ZM146.211 54.633L145.389 55.2028L145.393 55.2079L146.211 54.633ZM27.91 214V10.68H25.91V214H27.91ZM26.91 11.68H99.567V9.68H26.91V11.68ZM99.567 11.68C128.031 11.68 149.231 21.0547 163.354 39.689L164.948 38.481C150.367 19.242 128.511 9.68 99.567 9.68V11.68ZM163.354 39.689C177.544 58.4113 184.679 82.6009 184.679 112.34H186.679C186.679 82.279 179.462 57.6321 164.948 38.481L163.354 39.689ZM184.679 112.34C184.679 142.079 177.544 166.269 163.354 184.991L164.948 186.199C179.462 167.048 186.679 142.401 186.679 112.34H184.679ZM163.354 184.991C149.231 203.625 128.031 213 99.567 213V215C128.511 215 150.367 205.438 164.948 186.199L163.354 184.991ZM99.567 213H26.91V215H99.567V213ZM99.567 31.208H50.83V33.208H99.567V31.208ZM49.83 32.208V192.472H51.83V32.208H49.83ZM50.83 193.472H99.567V191.472H50.83V193.472ZM99.567 193.472C120.567 193.472 136.446 185.981 147.029 170.921L145.393 169.771C135.245 184.212 120.028 191.472 99.567 191.472V193.472ZM147.033 170.916C157.545 155.754 162.759 136.203 162.759 112.34H160.759C160.759 135.918 155.608 155.038 145.389 169.776L147.033 170.916ZM162.759 112.34C162.759 88.4779 157.545 69.023 147.029 54.058L145.393 55.2079C155.608 69.7443 160.759 88.7608 160.759 112.34H162.759ZM147.033 54.0632C136.452 38.8029 120.573 31.208 99.567 31.208V33.208C120.023 33.208 135.239 40.5631 145.389 55.2028L147.033 54.0632ZM225.556 199.349L224.82 200.026L224.826 200.033L225.556 199.349ZM228.845 83.935L228.092 83.2772L228.092 83.2772L228.845 83.935ZM316.153 73.171L315.446 73.8782L315.454 73.8864L316.153 73.171ZM309.276 139.549L308.65 138.769L308.644 138.774L309.276 139.549ZM231.536 154.499L231.617 153.502L230.423 153.405L230.541 154.597L231.536 154.499ZM244.393 186.791L243.676 187.488L243.686 187.498L244.393 186.791ZM314.359 181.708L315.165 181.116L314.5 180.211L313.677 180.976L314.359 181.708ZM325.123 196.359L325.816 197.08L326.448 196.473L325.929 195.767L325.123 196.359ZM247.084 95.297L246.355 94.6125L246.347 94.6206L247.084 95.297ZM231.237 134.167L230.242 134.069L230.148 135.013L231.087 135.156L231.237 134.167ZM292.532 126.094L293.103 126.915L293.103 126.915L292.532 126.094ZM299.409 87.822L298.672 88.4977L298.686 88.5137L298.702 88.5291L299.409 87.822ZM270.107 217.186C252.43 217.186 237.848 211.012 226.286 198.665L224.826 200.033C236.785 212.802 251.904 219.186 270.107 219.186V217.186ZM226.291 198.672C214.96 186.364 209.214 168.208 209.214 144.034H207.214C207.214 168.497 213.028 187.218 224.82 200.026L226.291 198.672ZM209.214 144.034C209.214 119.915 216.029 100.129 229.598 84.5928L228.092 83.2772C214.153 99.2359 207.214 119.515 207.214 144.034H209.214ZM229.598 84.5928C243.152 69.0747 260.712 61.314 282.366 61.314V59.314C260.166 59.314 242.046 67.3006 228.092 83.2772L229.598 84.5928ZM282.366 61.314C296.097 61.314 307.091 65.5229 315.446 73.8781L316.86 72.4639C308.072 63.6764 296.541 59.314 282.366 59.314V61.314ZM315.454 73.8864C323.819 82.0571 328.01 92.3576 328.01 104.865H330.01C330.01 91.8578 325.629 81.0289 316.852 72.4556L315.454 73.8864ZM328.01 104.865C328.01 117.024 321.656 128.325 308.65 138.769L309.902 140.329C323.208 129.644 330.01 117.822 330.01 104.865H328.01ZM308.644 138.774C295.935 149.137 277.261 154.396 252.466 154.396V156.396C277.504 156.396 296.703 151.091 309.908 140.324L308.644 138.774ZM252.466 154.396C245.918 154.396 238.968 154.098 231.617 153.502L231.455 155.496C238.854 156.096 245.858 156.396 252.466 156.396V154.396ZM230.541 154.597C231.95 168.89 236.291 179.898 243.676 187.488L245.11 186.094C238.142 178.933 233.912 168.413 232.531 154.401L230.541 154.597ZM243.686 187.498C251.247 195.06 260.371 198.854 271.004 198.854V196.854C260.906 196.854 252.289 193.273 245.1 186.084L243.686 187.498ZM271.004 198.854C288.572 198.854 303.275 193.394 315.04 182.44L313.677 180.976C302.32 191.55 288.12 196.854 271.004 196.854V198.854ZM313.553 182.3L324.317 196.951L325.929 195.767L315.165 181.116L313.553 182.3ZM324.43 195.638C309.472 210.005 291.384 217.186 270.107 217.186V219.186C291.886 219.186 310.475 211.815 325.816 197.08L324.43 195.638ZM281.469 79.646C267.447 79.646 255.719 84.6379 246.355 94.6126L247.813 95.9814C256.788 86.4214 267.983 81.646 281.469 81.646V79.646ZM246.347 94.6206C237.2 104.58 231.853 117.756 230.242 134.069L232.232 134.265C233.81 118.286 239.027 105.548 247.82 95.9734L246.347 94.6206ZM231.087 135.156C237.723 136.161 245.05 136.662 253.064 136.662V134.662C245.131 134.662 237.906 134.166 231.387 133.178L231.087 135.156ZM253.064 136.662C270.309 136.662 283.698 133.457 293.103 126.915L291.961 125.273C283.027 131.488 270.104 134.662 253.064 134.662V136.662ZM293.103 126.915C302.442 120.418 307.286 112.772 307.286 103.968H305.286C305.286 111.908 300.96 119.013 291.961 125.273L293.103 126.915ZM307.286 103.968C307.286 97.5092 304.878 91.8768 300.116 87.1149L298.702 88.5291C303.109 92.9365 305.286 98.0681 305.286 103.968H307.286ZM300.146 87.1463C295.539 82.1206 289.272 79.646 281.469 79.646V81.646C288.814 81.646 294.508 83.9554 298.672 88.4977L300.146 87.1463ZM351.547 83.935H350.547V84.935H351.547V83.935ZM351.547 64.5V63.5H350.547V64.5H351.547ZM370.982 64.5V65.5H371.982V64.5H370.982ZM381.447 12.175L380.712 11.4966L380.703 11.5071L381.447 12.175ZM445.134 12.474L446.008 12.9596L446.463 12.1412L445.676 11.6337L445.134 12.474ZM436.164 28.62L435.759 29.5345L436.595 29.9039L437.038 29.1056L436.164 28.62ZM393.706 64.5H392.706V65.5H393.706V64.5ZM472.343 64.5H473.343V63.5H472.343V64.5ZM472.343 214V215H473.343V214H472.343ZM449.619 214H448.619V215H449.619V214ZM449.619 83.935H450.619V82.935H449.619V83.935ZM393.706 83.935V82.935H392.706V83.935H393.706ZM393.706 261.84V262.84H394.706V261.84H393.706ZM370.982 261.84H369.982V262.84H370.982V261.84ZM370.982 83.935H371.982V82.935H370.982V83.935ZM352.547 83.935V64.5H350.547V83.935H352.547ZM351.547 65.5H370.982V63.5H351.547V65.5ZM371.982 64.5V49.251H369.982V64.5H371.982ZM371.982 49.251C371.982 32.4097 375.455 20.3487 382.191 12.8429L380.703 11.5071C373.485 19.5493 369.982 32.2056 369.982 49.251H371.982ZM382.182 12.8533C389.153 5.30075 398.148 1.51399 409.254 1.51399V-0.486014C397.636 -0.486014 388.093 3.50123 380.712 11.4967L382.182 12.8533ZM409.254 1.51399C420.577 1.51399 432.351 5.41704 444.592 13.3143L445.676 11.6337C433.199 3.58427 421.054 -0.486014 409.254 -0.486014V1.51399ZM444.26 11.9883L435.29 28.1344L437.038 29.1056L446.008 12.9596L444.26 11.9883ZM436.568 27.7055C426.175 23.1083 417.943 20.743 411.945 20.743V22.743C417.508 22.743 425.422 24.9624 435.759 29.5345L436.568 27.7055ZM411.945 20.743C405.59 20.743 400.699 23.0557 397.444 27.7513C394.235 32.3805 392.706 39.1997 392.706 48.055H394.706C394.706 39.369 396.217 33.0321 399.088 28.8907C401.912 24.8157 406.14 22.743 411.945 22.743V20.743ZM392.706 48.055V64.5H394.706V48.055H392.706ZM393.706 65.5H472.343V63.5H393.706V65.5ZM471.343 64.5V214H473.343V64.5H471.343ZM472.343 213H449.619V215H472.343V213ZM450.619 214V83.935H448.619V214H450.619ZM449.619 82.935H393.706V84.935H449.619V82.935ZM392.706 83.935V261.84H394.706V83.935H392.706ZM393.706 260.84H370.982V262.84H393.706V260.84ZM371.982 261.84V83.935H369.982V261.84H371.982ZM370.982 82.935H351.547V84.935H370.982V82.935ZM645.553 214V215H646.553V214H645.553ZM622.829 214H621.829V215H622.829V214ZM560.936 98.586L560.155 97.9613L560.148 97.9693L560.936 98.586ZM545.986 147.921L544.986 147.892L544.986 147.907V147.921H545.986ZM545.986 214V215H546.986V214H545.986ZM523.262 214H522.262V215H523.262V214ZM523.262 94.4H524.262V94.3501L524.257 94.3005L523.262 94.4ZM520.272 64.5L520.196 63.5029L519.175 63.5802L519.277 64.5995L520.272 64.5ZM540.006 63.005L540.989 62.8236L540.826 61.94L539.93 62.0079L540.006 63.005ZM545.687 93.802L544.703 93.9834L545.198 96.6627L546.554 94.2999L545.687 93.802ZM568.71 68.985L569.243 69.8309L568.71 68.985ZM596.517 61.314C612.633 61.314 624.566 66.4606 632.506 76.627C640.482 86.8404 644.553 102.277 644.553 123.104H646.553C646.553 102.071 642.451 86.1126 634.082 75.396C625.676 64.6324 613.091 59.314 596.517 59.314V61.314ZM644.553 123.104V214H646.553V123.104H644.553ZM645.553 213H622.829V215H645.553V213ZM623.829 214V123.104H621.829V214H623.829ZM623.829 123.104C623.829 108.863 621.302 98.0031 616.094 90.6809C610.841 83.296 602.961 79.646 592.63 79.646V81.646C602.431 81.646 609.65 85.0723 614.464 91.8401C619.322 98.6706 621.829 109.04 621.829 123.104H623.829ZM592.63 79.646C580.672 79.646 569.846 85.8469 560.155 97.9613L561.717 99.2107C571.161 87.4051 581.464 81.646 592.63 81.646V79.646ZM560.148 97.9693C550.606 110.151 545.588 126.828 544.986 147.892L546.985 147.95C547.579 127.154 552.528 110.941 561.723 99.2027L560.148 97.9693ZM544.986 147.921V214H546.986V147.921H544.986ZM545.986 213H523.262V215H545.986V213ZM524.262 214V94.4H522.262V214H524.262ZM524.257 94.3005L521.267 64.4005L519.277 64.5995L522.267 94.4995L524.257 94.3005ZM520.347 65.4971L540.081 64.0021L539.93 62.0079L520.196 63.5029L520.347 65.4971ZM539.022 63.1864L544.703 93.9834L546.67 93.6206L540.989 62.8236L539.022 63.1864ZM546.554 94.2999C552.664 83.6567 560.231 75.5127 569.243 69.8309L568.176 68.1391C558.85 74.0187 551.068 82.4193 544.819 93.3041L546.554 94.2999ZM569.243 69.8309C578.278 64.1348 587.365 61.314 596.517 61.314V59.314C586.931 59.314 577.48 62.2739 568.176 68.1391L569.243 69.8309ZM698.875 199.349L698.139 200.026L698.145 200.033L698.875 199.349ZM702.164 83.935L701.411 83.2772L701.411 83.2772L702.164 83.935ZM789.472 73.171L788.765 73.8782L788.773 73.8864L789.472 73.171ZM782.595 139.549L781.969 138.769L781.963 138.774L782.595 139.549ZM704.855 154.499L704.936 153.502L703.742 153.405L703.86 154.597L704.855 154.499ZM717.712 186.791L716.995 187.488L717.005 187.498L717.712 186.791ZM787.678 181.708L788.484 181.116L787.819 180.211L786.997 180.976L787.678 181.708ZM798.442 196.359L799.135 197.08L799.767 196.473L799.248 195.767L798.442 196.359ZM720.403 95.297L719.674 94.6125L719.667 94.6206L720.403 95.297ZM704.556 134.167L703.561 134.069L703.468 135.013L704.406 135.156L704.556 134.167ZM765.851 126.094L766.422 126.915L766.422 126.915L765.851 126.094ZM772.728 87.822L771.991 88.4977L772.006 88.5137L772.021 88.5291L772.728 87.822ZM743.426 217.186C725.749 217.186 711.168 211.012 699.605 198.665L698.145 200.033C710.104 212.802 725.223 219.186 743.426 219.186V217.186ZM699.611 198.672C688.28 186.364 682.533 168.208 682.533 144.034H680.533C680.533 168.497 686.348 187.218 698.139 200.026L699.611 198.672ZM682.533 144.034C682.533 119.915 689.348 100.129 702.917 84.5928L701.411 83.2772C687.472 99.2359 680.533 119.515 680.533 144.034H682.533ZM702.917 84.5928C716.471 69.0747 734.031 61.314 755.685 61.314V59.314C733.486 59.314 715.365 67.3006 701.411 83.2772L702.917 84.5928ZM755.685 61.314C769.417 61.314 780.41 65.5229 788.765 73.8781L790.179 72.4639C781.392 63.6764 769.86 59.314 755.685 59.314V61.314ZM788.773 73.8864C797.139 82.0571 801.329 92.3576 801.329 104.865H803.329C803.329 91.8578 798.948 81.0289 790.171 72.4556L788.773 73.8864ZM801.329 104.865C801.329 117.024 794.975 128.325 781.969 138.769L783.221 140.329C796.527 129.644 803.329 117.822 803.329 104.865H801.329ZM781.963 138.774C769.254 149.137 750.58 154.396 725.785 154.396V156.396C750.823 156.396 770.023 151.091 783.227 140.324L781.963 138.774ZM725.785 154.396C719.237 154.396 712.288 154.098 704.936 153.502L704.774 155.496C712.173 156.096 719.177 156.396 725.785 156.396V154.396ZM703.86 154.597C705.269 168.89 709.611 179.898 716.995 187.488L718.429 186.094C711.462 178.933 707.232 168.413 705.85 154.401L703.86 154.597ZM717.005 187.498C724.567 195.06 733.691 198.854 744.323 198.854V196.854C734.225 196.854 725.608 193.273 718.419 186.084L717.005 187.498ZM744.323 198.854C761.891 198.854 776.594 193.394 788.36 182.44L786.997 180.976C775.639 191.55 761.439 196.854 744.323 196.854V198.854ZM786.872 182.3L797.636 196.951L799.248 195.767L788.484 181.116L786.872 182.3ZM797.749 195.638C782.791 210.005 764.703 217.186 743.426 217.186V219.186C765.205 219.186 783.794 211.815 799.135 197.08L797.749 195.638ZM754.788 79.646C740.766 79.646 729.038 84.6379 719.674 94.6126L721.132 95.9814C730.107 86.4214 741.302 81.646 754.788 81.646V79.646ZM719.667 94.6206C710.52 104.58 705.172 117.756 703.561 134.069L705.551 134.265C707.13 118.286 712.347 105.548 721.14 95.9734L719.667 94.6206ZM704.406 135.156C711.042 136.161 718.369 136.662 726.383 136.662V134.662C718.45 134.662 711.226 134.166 704.706 133.178L704.406 135.156ZM726.383 136.662C743.628 136.662 757.018 133.457 766.422 126.915L765.28 125.273C756.346 131.488 743.424 134.662 726.383 134.662V136.662ZM766.422 126.915C775.762 120.418 780.605 112.772 780.605 103.968H778.605C778.605 111.908 774.279 119.013 765.28 125.273L766.422 126.915ZM780.605 103.968C780.605 97.5092 778.197 91.8768 773.435 87.1149L772.021 88.5291C776.428 92.9365 778.605 98.0681 778.605 103.968H780.605ZM773.465 87.1463C768.858 82.1206 762.592 79.646 754.788 79.646V81.646C762.134 81.646 767.827 83.9554 771.991 88.4977L773.465 87.1463ZM849.085 189.183L848.273 189.766L848.277 189.771L849.085 189.183ZM849.085 35.497L848.276 34.9088L848.273 34.9142L849.085 35.497ZM962.107 20.547L961.511 21.3499L961.517 21.3542L962.107 20.547ZM990.811 58.52L989.874 58.8685L990.811 58.52ZM990.811 166.16L989.874 165.812L989.874 165.812L990.811 166.16ZM962.107 204.133L961.517 203.326L961.511 203.33L962.107 204.133ZM867.025 51.344L866.19 50.7942L866.188 50.7967L867.025 51.344ZM867.025 173.635L866.185 174.177L866.189 174.184L866.193 174.19L867.025 173.635ZM960.014 173.336L959.179 172.786L959.179 172.786L960.014 173.336ZM960.014 51.344L959.179 51.8938L959.179 51.8938L960.014 51.344ZM849.898 188.6C835.899 169.08 828.856 143.688 828.856 112.34H826.856C826.856 143.982 833.966 169.818 848.273 189.766L849.898 188.6ZM828.856 112.34C828.856 80.9925 835.899 55.5997 849.898 36.0798L848.273 34.9142C833.966 54.8623 826.856 80.6982 826.856 112.34H828.856ZM849.894 36.0852C864.024 16.6558 885.124 6.89599 913.37 6.89599V4.89599C884.607 4.89599 862.85 14.8702 848.277 34.9088L849.894 36.0852ZM913.37 6.89599C932.531 6.89599 948.557 11.7325 961.511 21.3499L962.703 19.7441C949.345 9.82686 932.88 4.89599 913.37 4.89599V6.89599ZM961.517 21.3542C974.714 31.0056 984.161 43.5036 989.874 58.8685L991.749 58.1715C985.9 42.4404 976.211 29.6231 962.698 19.7398L961.517 21.3542ZM989.874 58.8685C995.605 74.283 998.482 92.101 998.482 112.34H1000.48C1000.48 91.915 997.579 73.853 991.749 58.1715L989.874 58.8685ZM998.482 112.34C998.482 132.579 995.605 150.397 989.874 165.812L991.749 166.508C997.579 150.827 1000.48 132.765 1000.48 112.34H998.482ZM989.874 165.812C984.161 181.176 974.714 193.674 961.517 203.326L962.698 204.94C976.211 195.057 985.9 182.24 991.749 166.508L989.874 165.812ZM961.511 203.33C948.557 212.948 932.531 217.784 913.37 217.784V219.784C932.88 219.784 949.345 214.853 962.703 204.936L961.511 203.33ZM913.37 217.784C885.124 217.784 864.024 208.024 849.894 188.595L848.277 189.771C862.85 209.81 884.607 219.784 913.37 219.784V217.784ZM866.188 50.7967C855.885 66.5554 850.776 87.0962 850.776 112.34H852.776C852.776 87.3518 857.834 67.2286 867.862 51.8912L866.188 50.7967ZM850.776 112.34C850.776 137.585 855.885 158.222 866.185 174.177L867.865 173.093C857.834 157.553 852.776 137.327 852.776 112.34H850.776ZM866.193 174.19C876.765 190.047 892.544 197.957 913.37 197.957V195.957C893.134 195.957 878.017 188.319 867.857 173.08L866.193 174.19ZM913.37 197.957C934.398 197.957 950.278 189.946 960.85 173.886L959.179 172.786C949.019 188.221 933.804 195.957 913.37 195.957V197.957ZM960.85 173.886C971.352 157.93 976.562 137.39 976.562 112.34H974.562C974.562 137.123 969.407 157.247 959.179 172.786L960.85 173.886ZM976.562 112.34C976.562 87.2896 971.352 66.7496 960.85 50.7942L959.179 51.8938C969.407 67.433 974.562 87.557 974.562 112.34H976.562ZM960.85 50.7942C950.278 34.7343 934.398 26.723 913.37 26.723V28.723C933.804 28.723 949.019 36.4591 959.179 51.8938L960.85 50.7942ZM913.37 26.723C892.538 26.723 876.759 34.7374 866.19 50.7942L867.861 51.8938C878.022 36.4559 893.14 28.723 913.37 28.723V26.723ZM1026.34 83.935H1025.34V84.935H1026.34V83.935ZM1026.34 64.5V63.5H1025.34V64.5H1026.34ZM1045.78 64.5V65.5H1046.78V64.5H1045.78ZM1056.24 12.175L1055.51 11.4966L1055.5 11.5071L1056.24 12.175ZM1119.93 12.474L1120.8 12.9596L1121.26 12.1412L1120.47 11.6337L1119.93 12.474ZM1110.96 28.62L1110.55 29.5345L1111.39 29.9039L1111.83 29.1056L1110.96 28.62ZM1068.5 64.5H1067.5V65.5H1068.5V64.5ZM1102.88 64.5H1103.88V63.5H1102.88V64.5ZM1102.88 83.935V84.935H1103.88V83.935H1102.88ZM1068.5 83.935V82.935H1067.5V83.935H1068.5ZM1068.5 261.84V262.84H1069.5V261.84H1068.5ZM1045.78 261.84H1044.78V262.84H1045.78V261.84ZM1045.78 83.935H1046.78V82.935H1045.78V83.935ZM1027.34 83.935V64.5H1025.34V83.935H1027.34ZM1026.34 65.5H1045.78V63.5H1026.34V65.5ZM1046.78 64.5V49.251H1044.78V64.5H1046.78ZM1046.78 49.251C1046.78 32.4097 1050.25 20.3487 1056.99 12.8429L1055.5 11.5071C1048.28 19.5493 1044.78 32.2056 1044.78 49.251H1046.78ZM1056.98 12.8533C1063.95 5.30075 1072.94 1.51399 1084.05 1.51399V-0.486014C1072.43 -0.486014 1062.89 3.50123 1055.51 11.4967L1056.98 12.8533ZM1084.05 1.51399C1095.37 1.51399 1107.15 5.41704 1119.39 13.3143L1120.47 11.6337C1107.99 3.58427 1095.85 -0.486014 1084.05 -0.486014V1.51399ZM1119.05 11.9883L1110.08 28.1344L1111.83 29.1056L1120.8 12.9596L1119.05 11.9883ZM1111.36 27.7055C1100.97 23.1083 1092.74 20.743 1086.74 20.743V22.743C1092.3 22.743 1100.22 24.9624 1110.55 29.5345L1111.36 27.7055ZM1086.74 20.743C1080.38 20.743 1075.49 23.0557 1072.24 27.7513C1069.03 32.3805 1067.5 39.1997 1067.5 48.055H1069.5C1069.5 39.369 1071.01 33.0321 1073.88 28.8907C1076.71 24.8157 1080.93 22.743 1086.74 22.743V20.743ZM1067.5 48.055V64.5H1069.5V48.055H1067.5ZM1068.5 65.5H1102.88V63.5H1068.5V65.5ZM1101.88 64.5V83.935H1103.88V64.5H1101.88ZM1102.88 82.935H1068.5V84.935H1102.88V82.935ZM1067.5 83.935V261.84H1069.5V83.935H1067.5ZM1068.5 260.84H1045.78V262.84H1068.5V260.84ZM1046.78 261.84V83.935H1044.78V261.84H1046.78ZM1045.78 82.935H1026.34V84.935H1045.78V82.935ZM66.976 434H65.976V435H66.976V434ZM66.976 363.735H67.976V363.498L67.8692 363.285L66.976 363.735ZM0 230.68V229.68H-1.62292L-0.89322 231.13L0 230.68ZM26.312 230.68L27.2132 230.247L26.9407 229.68H26.312V230.68ZM78.936 340.114L78.0348 340.547L78.936 342.421L79.8372 340.547L78.936 340.114ZM131.56 230.68V229.68H130.931L130.659 230.247L131.56 230.68ZM157.872 230.68L158.765 231.13L159.495 229.68H157.872V230.68ZM90.896 363.735L90.0028 363.285L89.896 363.498V363.735H90.896ZM90.896 434V435H91.896V434H90.896ZM67.976 434V363.735H65.976V434H67.976ZM67.8692 363.285L0.89322 230.23L-0.89322 231.13L66.0828 364.185L67.8692 363.285ZM0 231.68H26.312V229.68H0V231.68ZM25.4108 231.113L78.0348 340.547L79.8372 339.681L27.2132 230.247L25.4108 231.113ZM79.8372 340.547L132.461 231.113L130.659 230.247L78.0348 339.681L79.8372 340.547ZM131.56 231.68H157.872V229.68H131.56V231.68ZM156.979 230.23L90.0028 363.285L91.7892 364.185L158.765 231.13L156.979 230.23ZM89.896 363.735V434H91.896V363.735H89.896ZM90.896 433H66.976V435H90.896V433ZM168.339 416.359L167.537 416.956L167.541 416.961L168.339 416.359ZM168.339 302.44L169.138 303.042L169.142 303.037L168.339 302.44ZM267.009 302.44L266.212 303.043L266.216 303.049L267.009 302.44ZM267.009 416.359L267.803 416.968L267.807 416.962L267.009 416.359ZM185.382 317.091L186.214 317.646L186.219 317.639L185.382 317.091ZM185.382 401.708L184.546 402.256L184.55 402.263L185.382 401.708ZM249.966 401.708L249.137 401.15L249.134 401.153L249.966 401.708ZM249.966 317.091L249.13 317.639L249.135 317.647L249.141 317.656L249.966 317.091ZM169.142 415.762C158.338 401.226 152.894 382.415 152.894 359.25H150.894C150.894 382.729 156.414 401.991 167.537 416.956L169.142 415.762ZM152.894 359.25C152.894 336.084 158.338 317.376 169.138 303.042L167.541 301.838C156.414 316.606 150.894 335.772 150.894 359.25H152.894ZM169.142 303.037C179.881 288.588 195.899 281.314 217.375 281.314V279.314C195.397 279.314 178.725 286.791 167.537 301.843L169.142 303.037ZM217.375 281.314C239.054 281.314 255.275 288.59 266.212 303.043L267.807 301.837C256.419 286.788 239.55 279.314 217.375 279.314V281.314ZM266.216 303.049C277.212 317.383 282.753 336.088 282.753 359.25H284.753C284.753 335.768 279.132 316.6 267.803 301.831L266.216 303.049ZM282.753 359.25C282.753 382.412 277.212 401.219 266.212 415.756L267.807 416.962C279.132 401.997 284.753 382.732 284.753 359.25H282.753ZM266.216 415.75C255.28 430.005 239.059 437.186 217.375 437.186V439.186C239.545 439.186 256.413 431.815 267.803 416.968L266.216 415.75ZM217.375 437.186C195.894 437.186 179.875 430.008 169.138 415.757L167.541 416.961C178.73 431.813 195.402 439.186 217.375 439.186V437.186ZM184.55 316.536C177.233 327.512 173.618 341.776 173.618 359.25H175.618C175.618 342.04 179.179 328.198 186.214 317.646L184.55 316.536ZM173.618 359.25C173.618 376.725 177.234 391.085 184.546 402.256L186.219 401.16C179.179 390.405 175.618 376.459 175.618 359.25H173.618ZM184.55 402.263C191.934 413.339 203.031 418.854 217.674 418.854V416.854C203.614 416.854 193.182 411.605 186.214 401.153L184.55 402.263ZM217.674 418.854C232.318 418.854 243.414 413.339 250.798 402.263L249.134 401.153C242.166 411.605 231.735 416.854 217.674 416.854V418.854ZM250.796 402.266C258.312 391.093 262.029 376.73 262.029 359.25H260.029C260.029 376.454 256.371 390.396 249.137 401.15L250.796 402.266ZM262.029 359.25C262.029 341.772 258.313 327.503 250.791 316.526L249.141 317.656C256.371 328.207 260.029 342.044 260.029 359.25H262.029ZM250.803 316.543C243.422 305.267 232.326 299.646 217.674 299.646V301.646C231.727 301.646 242.158 306.988 249.13 317.639L250.803 316.543ZM217.674 299.646C203.023 299.646 191.926 305.267 184.546 316.543L186.219 317.639C193.19 306.988 203.622 301.646 217.674 301.646V299.646ZM321.133 284.5V283.5H320.133V284.5H321.133ZM343.857 284.5H344.857V283.5H343.857V284.5ZM405.451 400.213L404.67 399.588L404.669 399.59L405.451 400.213ZM420.7 350.878L421.7 350.907L421.7 350.892V350.878H420.7ZM420.7 284.5V283.5H419.7V284.5H420.7ZM443.424 284.5H444.424V283.5H443.424V284.5ZM443.424 404.1H442.424V404.15L442.429 404.2L443.424 404.1ZM446.414 434L446.49 434.997L447.511 434.92L447.409 433.9L446.414 434ZM426.68 435.495L425.698 435.686L425.868 436.559L426.756 436.492L426.68 435.495ZM420.7 404.698L421.682 404.507L421.159 401.813L419.826 404.212L420.7 404.698ZM397.976 429.515L398.509 430.361L398.509 430.361L397.976 429.515ZM321.133 285.5H343.857V283.5H321.133V285.5ZM342.857 284.5V375.396H344.857V284.5H342.857ZM342.857 375.396C342.857 389.637 345.384 400.497 350.592 407.819C355.844 415.204 363.725 418.854 374.056 418.854V416.854C364.254 416.854 357.035 413.428 352.222 406.66C347.363 399.829 344.857 389.46 344.857 375.396H342.857ZM374.056 418.854C386.009 418.854 396.736 412.757 406.233 400.836L404.669 399.59C395.428 411.19 385.226 416.854 374.056 416.854V418.854ZM406.232 400.838C415.978 388.655 421.098 371.975 421.7 350.907L419.7 350.849C419.106 371.641 414.06 387.85 404.67 399.588L406.232 400.838ZM421.7 350.878V284.5H419.7V350.878H421.7ZM420.7 285.5H443.424V283.5H420.7V285.5ZM442.424 284.5V404.1H444.424V284.5H442.424ZM442.429 404.2L445.419 434.1L447.409 433.9L444.419 404L442.429 404.2ZM446.338 433.003L426.604 434.498L426.756 436.492L446.49 434.997L446.338 433.003ZM427.662 435.304L421.682 404.507L419.718 404.889L425.698 435.686L427.662 435.304ZM419.826 404.212C413.916 414.85 406.452 422.99 397.443 428.669L398.509 430.361C407.839 424.479 415.524 416.074 421.574 405.184L419.826 404.212ZM397.443 428.669C388.407 434.365 379.321 437.186 370.169 437.186V439.186C379.755 439.186 389.206 436.226 398.509 430.361L397.443 428.669ZM370.169 437.186C354.053 437.186 342.12 432.039 334.18 421.873C326.204 411.66 322.133 396.223 322.133 375.396H320.133C320.133 396.429 324.235 412.387 332.604 423.104C341.01 433.868 353.594 439.186 370.169 439.186V437.186ZM322.133 375.396V284.5H320.133V375.396H322.133ZM517.078 434V435H518.078V434H517.078ZM494.354 434H493.354V435H494.354V434ZM494.354 314.4H495.354V314.35L495.349 314.3L494.354 314.4ZM491.364 284.5L491.289 283.503L490.267 283.58L490.369 284.6L491.364 284.5ZM511.098 283.005L512.085 282.841L511.935 281.939L511.023 282.008L511.098 283.005ZM517.078 318.885L516.092 319.049L516.609 322.151L517.979 319.321L517.078 318.885ZM569.702 281.211L570.7 281.145L570.639 280.211H569.702V281.211ZM571.197 303.935L571.277 304.932L572.26 304.854L572.195 303.869L571.197 303.935ZM517.078 384.366L516.079 384.346L516.078 384.356V384.366H517.078ZM517.078 433H494.354V435H517.078V433ZM495.354 434V314.4H493.354V434H495.354ZM495.349 314.3L492.359 284.4L490.369 284.6L493.359 314.5L495.349 314.3ZM491.44 285.497L511.174 284.002L511.023 282.008L491.289 283.503L491.44 285.497ZM510.112 283.169L516.092 319.049L518.065 318.721L512.085 282.841L510.112 283.169ZM517.979 319.321C523.901 307.081 531.374 297.86 540.374 291.6L539.231 289.958C529.892 296.455 522.216 305.971 516.178 318.449L517.979 319.321ZM540.374 291.6C549.382 285.333 559.151 282.211 569.702 282.211V280.211C558.726 280.211 548.562 283.467 539.231 289.958L540.374 291.6ZM568.705 281.277L570.2 304.001L572.195 303.869L570.7 281.145L568.705 281.277ZM571.118 302.938C553.304 304.355 539.733 311.895 530.526 325.577C521.354 339.209 516.579 358.84 516.079 384.346L518.078 384.386C518.575 359.062 523.318 339.873 532.185 326.694C541.018 313.566 554.008 306.305 571.277 304.932L571.118 302.938ZM516.078 384.366V434H518.078V384.366H516.078ZM600.967 434H599.967V435H600.967V434ZM600.967 230.68V229.68H599.967V230.68H600.967ZM708.607 230.68H709.607V229.68H708.607V230.68ZM708.607 252.208V253.208H709.607V252.208H708.607ZM624.887 252.208V251.208H623.887V252.208H624.887ZM624.887 321.576H623.887V322.576H624.887V321.576ZM692.76 321.576H693.76V320.576H692.76V321.576ZM692.76 343.104V344.104H693.76V343.104H692.76ZM624.887 343.104V342.104H623.887V343.104H624.887ZM624.887 434V435H625.887V434H624.887ZM601.967 434V230.68H599.967V434H601.967ZM600.967 231.68H708.607V229.68H600.967V231.68ZM707.607 230.68V252.208H709.607V230.68H707.607ZM708.607 251.208H624.887V253.208H708.607V251.208ZM623.887 252.208V321.576H625.887V252.208H623.887ZM624.887 322.576H692.76V320.576H624.887V322.576ZM691.76 321.576V343.104H693.76V321.576H691.76ZM692.76 342.104H624.887V344.104H692.76V342.104ZM623.887 343.104V434H625.887V343.104H623.887ZM624.887 433H600.967V435H624.887V433ZM742.382 419.349L741.646 420.026L741.652 420.033L742.382 419.349ZM745.671 303.935L744.918 303.277L744.918 303.277L745.671 303.935ZM832.979 293.171L832.272 293.878L832.28 293.886L832.979 293.171ZM826.102 359.549L825.476 358.769L825.47 358.774L826.102 359.549ZM748.362 374.499L748.443 373.502L747.249 373.405L747.367 374.597L748.362 374.499ZM761.219 406.791L760.502 407.488L760.512 407.498L761.219 406.791ZM831.185 401.708L831.991 401.116L831.326 400.211L830.504 400.976L831.185 401.708ZM841.949 416.359L842.642 417.08L843.274 416.473L842.755 415.767L841.949 416.359ZM763.91 315.297L763.181 314.613L763.173 314.621L763.91 315.297ZM748.063 354.167L747.068 354.069L746.974 355.013L747.913 355.156L748.063 354.167ZM809.358 346.094L809.929 346.915L809.929 346.915L809.358 346.094ZM816.235 307.822L815.498 308.498L815.512 308.514L815.528 308.529L816.235 307.822ZM786.933 437.186C769.256 437.186 754.675 431.012 743.112 418.665L741.652 420.033C753.611 432.802 768.73 439.186 786.933 439.186V437.186ZM743.118 418.672C731.787 406.364 726.04 388.208 726.04 364.034H724.04C724.04 388.497 729.855 407.218 741.646 420.026L743.118 418.672ZM726.04 364.034C726.04 339.915 732.855 320.129 746.424 304.593L744.918 303.277C730.979 319.236 724.04 339.515 724.04 364.034H726.04ZM746.424 304.593C759.978 289.075 777.538 281.314 799.192 281.314V279.314C776.993 279.314 758.872 287.301 744.918 303.277L746.424 304.593ZM799.192 281.314C812.924 281.314 823.917 285.523 832.272 293.878L833.686 292.464C824.899 283.676 813.367 279.314 799.192 279.314V281.314ZM832.28 293.886C840.645 302.057 844.836 312.358 844.836 324.865H846.836C846.836 311.858 842.455 301.029 833.678 292.456L832.28 293.886ZM844.836 324.865C844.836 337.024 838.482 348.325 825.476 358.769L826.728 360.329C840.034 349.644 846.836 337.822 846.836 324.865H844.836ZM825.47 358.774C812.761 369.137 794.087 374.396 769.292 374.396V376.396C794.33 376.396 813.53 371.091 826.734 360.324L825.47 358.774ZM769.292 374.396C762.744 374.396 755.794 374.098 748.443 373.502L748.281 375.496C755.68 376.096 762.684 376.396 769.292 376.396V374.396ZM747.367 374.597C748.776 388.89 753.117 399.898 760.502 407.488L761.936 406.094C754.969 398.933 750.739 388.413 749.357 374.401L747.367 374.597ZM760.512 407.498C768.073 415.06 777.198 418.854 787.83 418.854V416.854C777.732 416.854 769.115 413.273 761.926 406.084L760.512 407.498ZM787.83 418.854C805.398 418.854 820.101 413.394 831.866 402.44L830.504 400.976C819.146 411.55 804.946 416.854 787.83 416.854V418.854ZM830.379 402.3L841.143 416.951L842.755 415.767L831.991 401.116L830.379 402.3ZM841.256 415.638C826.298 430.005 808.21 437.186 786.933 437.186V439.186C808.712 439.186 827.301 431.815 842.642 417.08L841.256 415.638ZM798.295 299.646C784.273 299.646 772.545 304.638 763.181 314.613L764.639 315.981C773.614 306.421 784.809 301.646 798.295 301.646V299.646ZM763.173 314.621C754.027 324.58 748.679 337.756 747.068 354.069L749.058 354.265C750.636 338.286 755.853 325.548 764.646 315.973L763.173 314.621ZM747.913 355.156C754.549 356.161 761.876 356.662 769.89 356.662V354.662C761.957 354.662 754.733 354.166 748.213 353.178L747.913 355.156ZM769.89 356.662C787.135 356.662 800.524 353.457 809.929 346.915L808.787 345.273C799.853 351.488 786.93 354.662 769.89 354.662V356.662ZM809.929 346.915C819.268 340.418 824.112 332.772 824.112 323.968H822.112C822.112 331.908 817.786 339.013 808.787 345.273L809.929 346.915ZM824.112 323.968C824.112 317.509 821.704 311.877 816.942 307.115L815.528 308.529C819.935 312.937 822.112 318.068 822.112 323.968H824.112ZM816.972 307.146C812.365 302.121 806.099 299.646 798.295 299.646V301.646C805.641 301.646 811.334 303.955 815.498 308.498L816.972 307.146ZM886.313 418.751L887.076 418.105L886.313 418.751ZM890.499 303.337L889.759 302.664L889.759 302.665L890.499 303.337ZM998.139 297.656H999.139V297.135L998.712 296.836L998.139 297.656ZM998.139 404.1H997.139V404.15L997.144 404.2L998.139 404.1ZM1001.13 434L1001.2 434.997L1002.23 434.92L1002.12 433.9L1001.13 434ZM981.395 435.495L980.412 435.681L980.579 436.56L981.471 436.492L981.395 435.495ZM976.312 408.585L977.295 408.399L976.787 405.714L975.442 408.093L976.312 408.585ZM903.954 403.502L904.738 402.881L904.738 402.881L903.954 403.502ZM963.156 400.213L963.977 400.784L963.982 400.777L963.156 400.213ZM975.415 308.121H976.415V307.503L975.862 307.227L975.415 308.121ZM906.944 317.988L907.709 318.632L907.714 318.626L906.944 317.988ZM928.472 437.186C911.62 437.186 897.848 430.835 887.076 418.105L885.55 419.397C896.705 432.581 911.039 439.186 928.472 439.186V437.186ZM887.076 418.105C876.32 405.393 870.868 387.021 870.868 362.838H868.868C868.868 387.293 874.379 406.195 885.55 419.397L887.076 418.105ZM870.868 362.838C870.868 338.517 877.684 318.939 891.239 304.009L889.759 302.665C875.806 318.033 868.868 338.123 868.868 362.838H870.868ZM891.239 304.01C905.005 288.867 921.98 281.314 942.226 281.314V279.314C921.41 279.314 903.9 287.11 889.759 302.664L891.239 304.01ZM942.226 281.314C962.758 281.314 981.194 287.035 997.566 298.476L998.712 296.836C981.994 285.154 963.156 279.314 942.226 279.314V281.314ZM997.139 297.656V404.1H999.139V297.656H997.139ZM997.144 404.2L1000.13 434.1L1002.12 433.9L999.134 404L997.144 404.2ZM1001.05 433.003L981.32 434.498L981.471 436.492L1001.2 434.997L1001.05 433.003ZM982.378 435.309L977.295 408.399L975.329 408.771L980.412 435.681L982.378 435.309ZM975.442 408.093C964.436 427.549 948.803 437.186 928.472 437.186V439.186C949.603 439.186 965.863 429.089 977.182 409.077L975.442 408.093ZM891.592 362.24C891.592 380.303 895.403 394.312 903.17 404.123L904.738 402.881C897.356 393.556 893.592 380.057 893.592 362.24H891.592ZM903.17 404.123C910.926 413.92 920.878 418.854 932.957 418.854V416.854C921.515 416.854 912.131 412.22 904.738 402.881L903.17 404.123ZM932.957 418.854C945.312 418.854 955.66 412.753 963.977 400.784L962.335 399.642C954.307 411.195 944.522 416.854 932.957 416.854V418.854ZM963.982 400.777C972.312 388.587 976.415 371.516 976.415 349.682H974.415C974.415 371.303 970.346 387.919 962.33 399.649L963.982 400.777ZM976.415 349.682V308.121H974.415V349.682H976.415ZM975.862 307.227C965.754 302.172 954.936 299.646 943.422 299.646V301.646C954.632 301.646 965.143 304.103 974.968 309.015L975.862 307.227ZM943.422 299.646C928.368 299.646 915.928 305.564 906.174 317.35L907.714 318.626C917.096 307.289 928.975 301.646 943.422 301.646V299.646ZM906.179 317.344C896.428 328.924 891.592 343.919 891.592 362.24H893.592C893.592 344.282 898.324 329.776 907.709 318.632L906.179 317.344ZM1073.32 434V435H1074.32V434H1073.32ZM1050.6 434H1049.6V435H1050.6V434ZM1050.6 314.4H1051.6V314.35L1051.59 314.3L1050.6 314.4ZM1047.61 284.5L1047.53 283.503L1046.51 283.58L1046.61 284.6L1047.61 284.5ZM1067.34 283.005L1068.33 282.841L1068.18 281.939L1067.27 282.008L1067.34 283.005ZM1073.32 318.885L1072.34 319.049L1072.85 322.151L1074.22 319.321L1073.32 318.885ZM1125.95 281.211L1126.95 281.145L1126.88 280.211H1125.95V281.211ZM1127.44 303.935L1127.52 304.932L1128.51 304.854L1128.44 303.869L1127.44 303.935ZM1073.32 384.366L1072.32 384.346L1072.32 384.356V384.366H1073.32ZM1073.32 433H1050.6V435H1073.32V433ZM1051.6 434V314.4H1049.6V434H1051.6ZM1051.59 314.3L1048.6 284.4L1046.61 284.6L1049.6 314.5L1051.59 314.3ZM1047.69 285.497L1067.42 284.002L1067.27 282.008L1047.53 283.503L1047.69 285.497ZM1066.36 283.169L1072.34 319.049L1074.31 318.721L1068.33 282.841L1066.36 283.169ZM1074.22 319.321C1080.15 307.081 1087.62 297.86 1096.62 291.6L1095.48 289.958C1086.14 296.455 1078.46 305.971 1072.42 318.449L1074.22 319.321ZM1096.62 291.6C1105.63 285.333 1115.4 282.211 1125.95 282.211V280.211C1114.97 280.211 1104.81 283.467 1095.48 289.958L1096.62 291.6ZM1124.95 281.277L1126.44 304.001L1128.44 303.869L1126.95 281.145L1124.95 281.277ZM1127.36 302.938C1109.55 304.355 1095.98 311.895 1086.77 325.577C1077.6 339.209 1072.82 358.84 1072.32 384.346L1074.32 384.386C1074.82 359.062 1079.56 339.873 1088.43 326.694C1097.26 313.566 1110.25 306.305 1127.52 304.932L1127.36 302.938ZM1072.32 384.366V434H1074.32V384.366H1072.32ZM1217.01 411.276L1216.44 410.457L1216.44 410.457L1217.01 411.276ZM1220.9 380.778L1220.15 381.445L1220.16 381.455L1220.17 381.465L1220.9 380.778ZM1209.84 372.705L1209.45 373.627L1209.46 373.63L1209.46 373.633L1209.84 372.705ZM1193.39 367.323L1193.1 368.279L1193.11 368.283L1193.12 368.287L1193.39 367.323ZM1176.95 361.941L1176.56 362.863L1176.58 362.871L1176.6 362.879L1176.95 361.941ZM1163.49 354.765L1164.01 353.913L1164.01 353.912L1163.49 354.765ZM1163.49 291.377L1162.89 290.579L1162.89 290.579L1163.49 291.377ZM1222.39 283.603L1222.13 284.569L1222.14 284.57L1222.39 283.603ZM1241.23 290.48L1242.14 290.897L1242.52 290.066L1241.73 289.612L1241.23 290.48ZM1232.86 308.719L1232.38 309.598L1233.32 310.107L1233.77 309.136L1232.86 308.719ZM1179.34 306.626L1179.91 307.448L1179.91 307.444L1179.34 306.626ZM1176.35 333.835L1177.05 333.128L1177.05 333.128L1176.35 333.835ZM1201.76 345.795L1201.49 346.757L1201.49 346.757L1201.76 345.795ZM1218.51 351.476L1218.11 352.395L1218.14 352.406L1218.17 352.416L1218.51 351.476ZM1233.16 359.25L1233.72 358.42L1233.71 358.418L1233.16 359.25ZM1233.16 426.525L1232.56 425.725L1232.55 425.731L1233.16 426.525ZM1142.26 418.153L1141.46 417.555L1140.92 418.274L1141.58 418.885L1142.26 418.153ZM1154.52 401.708L1155.21 400.988L1154.4 400.2L1153.72 401.11L1154.52 401.708ZM1194.89 418.555C1203.82 418.555 1211.41 416.421 1217.59 412.095L1216.44 410.457C1210.66 414.503 1203.49 416.555 1194.89 416.555V418.555ZM1217.59 412.095C1223.78 407.761 1226.98 402.296 1226.98 395.728H1224.98C1224.98 401.519 1222.21 406.419 1216.44 410.457L1217.59 412.095ZM1226.98 395.728C1226.98 389.171 1225.24 383.914 1221.63 380.091L1220.17 381.465C1223.34 384.818 1224.98 389.527 1224.98 395.728H1226.98ZM1221.64 380.111C1218.17 376.23 1214.36 373.438 1210.21 371.777L1209.46 373.633C1213.28 375.161 1216.85 377.751 1220.15 381.445L1221.64 380.111ZM1210.22 371.783C1206.38 370.164 1200.85 368.357 1193.66 366.359L1193.12 368.287C1200.29 370.276 1205.72 372.057 1209.45 373.627L1210.22 371.783ZM1193.68 366.367C1186.51 364.176 1181.05 362.388 1177.29 361.003L1176.6 362.879C1180.41 364.285 1185.92 366.085 1193.1 368.279L1193.68 366.367ZM1177.33 361.019C1173.61 359.451 1169.17 357.087 1164.01 353.913L1162.97 355.617C1168.17 358.821 1172.71 361.241 1176.56 362.863L1177.33 361.019ZM1164.01 353.912C1154.62 348.161 1149.84 338.372 1149.84 324.267H1147.84C1147.84 338.866 1152.83 349.409 1162.97 355.618L1164.01 353.912ZM1149.84 324.267C1149.84 309.963 1154.63 299.325 1164.09 292.175L1162.89 290.579C1152.82 298.18 1147.84 309.469 1147.84 324.267H1149.84ZM1164.09 292.175C1173.67 284.941 1184.92 281.314 1197.88 281.314V279.314C1184.52 279.314 1172.84 283.062 1162.89 290.579L1164.09 292.175ZM1197.88 281.314C1205.96 281.314 1214.04 282.398 1222.13 284.569L1222.65 282.637C1214.4 280.423 1206.14 279.314 1197.88 279.314V281.314ZM1222.14 284.57C1230.48 286.755 1236.66 289.021 1240.73 291.348L1241.73 289.612C1237.43 287.155 1231.05 284.836 1222.65 282.636L1222.14 284.57ZM1240.32 290.063L1231.95 308.302L1233.77 309.136L1242.14 290.897L1240.32 290.063ZM1233.34 307.84C1223.59 302.56 1211.75 299.945 1197.88 299.945V301.945C1211.51 301.945 1222.99 304.513 1232.38 309.598L1233.34 307.84ZM1197.88 299.945C1190.71 299.945 1184.32 301.895 1178.76 305.808L1179.91 307.444C1185.12 303.782 1191.09 301.945 1197.88 301.945V299.945ZM1178.77 305.804C1173.34 309.559 1170.56 314.537 1170.56 320.679H1172.56C1172.56 315.26 1174.97 310.869 1179.91 307.448L1178.77 305.804ZM1170.56 320.679C1170.56 326.459 1172.22 331.123 1175.64 334.542L1177.05 333.128C1174.1 330.169 1172.56 326.062 1172.56 320.679H1170.56ZM1175.64 334.542C1178.9 337.804 1182.3 340.181 1185.83 341.637L1186.6 339.787C1183.35 338.452 1180.17 336.245 1177.05 333.128L1175.64 334.542ZM1185.83 341.637C1189.28 343.054 1194.5 344.761 1201.49 346.757L1202.04 344.833C1195.07 342.843 1189.93 341.161 1186.6 339.787L1185.83 341.637ZM1201.49 346.757C1208.44 348.744 1213.98 350.625 1218.11 352.395L1218.9 350.557C1214.66 348.739 1209.03 346.832 1202.04 344.833L1201.49 346.757ZM1218.17 352.416C1222.45 353.975 1227.26 356.523 1232.6 360.082L1233.71 358.418C1228.29 354.801 1223.33 352.166 1218.85 350.536L1218.17 352.416ZM1232.6 360.08C1242.63 366.829 1247.71 377.542 1247.71 392.439H1249.71C1249.71 377.038 1244.42 365.624 1233.72 358.42L1232.6 360.08ZM1247.71 392.439C1247.71 407.129 1242.63 418.171 1232.56 425.725L1233.76 427.325C1244.42 419.331 1249.71 407.649 1249.71 392.439H1247.71ZM1232.55 425.731C1222.59 433.346 1210.06 437.186 1194.89 437.186V439.186C1210.41 439.186 1223.39 435.252 1233.77 427.319L1232.55 425.731ZM1194.89 437.186C1174.39 437.186 1157.1 430.593 1142.94 417.421L1141.58 418.885C1156.13 432.423 1173.92 439.186 1194.89 439.186V437.186ZM1143.06 418.751L1155.32 402.306L1153.72 401.11L1141.46 417.555L1143.06 418.751ZM1153.83 402.428C1164.99 413.182 1178.69 418.555 1194.89 418.555V416.555C1179.18 416.555 1165.98 411.364 1155.21 400.988L1153.83 402.428Z" fill="black"/>
</svg>
